<svg xmlns="http://www.w3.org/2000/svg" viewBox="0 0 93.71 43.84"><defs><style>.cls-1{fill:#7898c8;}.cls-2{fill:#211a18;}.cls-3{fill:#010101;}</style></defs><title>Asset 1</title><g id="Layer_2" data-name="Layer 2"><g id="Layer_1-2" data-name="Layer 1"><line class="cls-1" x1="47.13" y1="0.88" x2="47.14" y2="0.86"/><path class="cls-2" d="M48.23,3.74a3.77,3.77,0,0,0,1.13-1.68c.29-.25.65-.45.58-1-.53,0-.56.47-.78.72-.44,0-.22,1.14-1,.53-.5-.41-.11-.88.14-1.07.42-.31.55-2.47,1.56-.37.85-.42,1.48.52,2.39.32,1.22-.28,1.82.9,2.55,1.6A19.86,19.86,0,0,1,56.44,5c.19.26.28.62.11.77-.86.78-.26,1.8-.5,2.64-.69,2.39,0,4.91-.82,7.29A2.45,2.45,0,0,0,55.28,18a.79.79,0,0,1-.19.74c-.63.29-.6.61-.22,1.07.1.11.26.2.17.45-1,2.77-.66,5.71-.93,8.57-.17,1.72-.55,3.43-.7,5.16,0,.58-1.14,1.48-1.89,2.11-.28.24-.85.31-.75.88.2,1.24-.66,1.06-1.32.92a2.49,2.49,0,0,1-2.08-3.18,6.6,6.6,0,0,0-.23-2.65c-.3-1.68.28-3.35.54-5,.64-4.22,1.31-8.42,2-12.63a5,5,0,0,0-.08-1A27.52,27.52,0,0,0,45.14,23a4.8,4.8,0,0,1-1.47,2.42c-.16.14-.28.44-.56.26s-.27-.44,0-.69a.71.71,0,0,0-.07-1.1c-.45-.29-.58.32-.8.54-.87.91-1.43.8-2.45-.07-1.58-1.36-2-3-2.44-4.9A32.53,32.53,0,0,0,35,13.71c-.33,1.89-1,3.7-1,5.65a3.1,3.1,0,0,1-.11,1.1c-.82,2.29-.3,4.69-.58,7-.24,2-.24,4-.65,5.94a6.67,6.67,0,0,1-3.25,4c-.95.6-2-.65-3-1.09-.59-.26,0-.9.07-1.36.61-2.16-.08-4.37.32-6.54A8.83,8.83,0,0,0,27,27.17L23.33,28c.52.78,1.32.7,2.1.72.3,0,.66-.64.88,0s-.32.85-.74,1c-1.46.37-2.95.62-4.4,1-3.76,1-7.59,1.62-11.22,3.15-2.13.89-4.37,1.61-6.57,2.41a1.39,1.39,0,0,1-1.76-.56A12.31,12.31,0,0,0,.26,33.93c-.57-.49-.09-1,.43-1.29,1.28-.78,1.44-1.3.42-2.32A2.75,2.75,0,0,1,.42,27.8C1.24,22.57,1.41,17.28,2,12a4.14,4.14,0,0,1,.18-1.09c.08-.2-.19-.57.28-.53s.36.23.27.59c-.24,1-.12,2-.42,3A.82.82,0,0,0,3,15c.74.05.37-.61.4-.92q.44-5.46.8-10.94c.07-1.06.91-1.66,1.37-2.46s1.66.07,1.7,1.14c0,1.32.3,1.52,1.44.77,1.3-.87,1.12.32,1.07,1C9.51,6.45,9.21,9.29,9,12.13c-.38,4.34-.74,8.67-1.12,13a9.61,9.61,0,0,1-.28,1.16,71.56,71.56,0,0,1,13.9-2.62l.08.37c-2.17.4-4.34.82-6.51,1.21a22.56,22.56,0,0,0-4.36,1c-.91.27-2.07,0-2.69,1.27A6.8,6.8,0,0,0,11,26.57c3.45.37,6.62-1.47,9.91-1.4,1.66,0,3.37-.56,5,0,1,.35,1.36-.08,1.41-1a61.84,61.84,0,0,1,1.84-10.64c.43-1.88.66-3.77.9-5.67a9.53,9.53,0,0,1,1.52-3.62c.4-.62,1.11-1.46-.48-1.69-.56-.08-.45-.74-.27-1.19s.45-.52.87-.21c.18.12.55.41.72.16.87-1.32,1.57-.7,2.41,0,.37.33,1-.07,1.55.18C39.1,2.77,40,5.15,40.62,7.76c.29,1.29.55,2.58.9,4.17,1-1.58,2-2.95,2.86-4.33s1.78-2.77,2.69-4.14c.22-.33.51-.76,1-.52.26.12,0,.4-.07.61-.36.24-.42.62-.57,1.06C48.06,4.55,48.09,4.1,48.23,3.74ZM30.71,7.89c.19-.2.57-.4.09-.66-.3-.17-.49,0-.5.31S30.24,8.17,30.71,7.89Zm20,9.51.14-.62A7.49,7.49,0,0,0,51.31,15a18,18,0,0,0,.08-3.52c0-.23,1-.38.09-.69-.44-.16-.65.13-.68.59-.09,1.66-.21,3.32-.33,5a1.11,1.11,0,0,0-.15,1.08c-.45,1.25,0,2.61-.5,3.85-.08.21-.13.3.11.38s.43,0,.46-.17A20.45,20.45,0,0,0,50.73,17.4ZM2.86,18.65c-.47,0-.61.27-.6.73,0,1.14-.09,2.29,0,3.42.07.61-.65,1.27.25,1.95.1-2.12.62-4.1.34-6.14l-.07,0ZM50.3,8.12,49.93,8a27.67,27.67,0,0,0-1.68,2.48q-2.18,4.1-4.21,8.26c-.34.7-1.08,1.69.4,2.15C45.77,16.31,48.4,12.38,50.3,8.12ZM46.75,6.63l-.44-.22q-2,3.54-4,7.08l.45.26C44.37,11.52,45.33,8.94,46.75,6.63Zm1.77,29.58c.49-1.08,1.17-2.18.15-3.29C48.64,34,48.07,35.08,48.52,36.21ZM42.71,23.86c.36-.12.61-.12.75-.25a1.67,1.67,0,0,0,.47-1.6.46.46,0,0,0-.41-.25c-.51.21-.42.78-.61,1.18A5.78,5.78,0,0,0,42.71,23.86Z"/><path class="cls-2" d="M70.83,30.47c-.1.87.62,1.62.34,2.66a15.14,15.14,0,0,1-1.63-4.84c-.4-1.74-.62-3.52-.92-5.29a1.41,1.41,0,0,1-.07-.53c1.21-4.73,2.1-9.57,4.07-14.07a12,12,0,0,1,3.85-4.74c.15,1.09-.92,1.44-1,2.2.35.36.6.07.73-.11C77.62,3.74,80,3.34,82,2.37c.52-.26,1.08-.44,1.6-.71,2.41-1.24,6,.9,6.2,3.58A3.16,3.16,0,0,0,92.27,8c.3.07.31.31.36.52.36,1.44.72,2.88,1.06,4.33.14.6-.46,1.1-.34,1.65.94,4.48-1.63,7.83-3.59,11.4a30.86,30.86,0,0,1-3.89,5.7c-.85,1-1.7,1.94-3.22,1.74a1.71,1.71,0,0,0-.91.29,3.49,3.49,0,0,1-2.5.47.7.7,0,0,0,.2.58c.29.29,1.14-.2,1,.54-.14.54-.82.16-1.24.19A4.56,4.56,0,0,1,75,33.21c-.09-.12-.34-.12-.52-.17s-.23-.6-.57-.35-.07.47.16.64c0,.56.58,1.07.17,1.71-1.31-.8-1.8-2.13-2.35-3.43-.23-.54-.22-1.2-.75-1.6-.11-.05-.3-.16-.32-.13A.38.38,0,0,0,70.83,30.47Zm17-23.61a3.37,3.37,0,0,1-.35.22A20.86,20.86,0,0,0,82,10c-1.61,1.24-3.39,2.08-4.32,4.32a24.62,24.62,0,0,0-2,13.41c.06.38,0,.78.06,1.17s-.47.45-.08.66a.63.63,0,0,0,.85-.2c1.78-2.23,4-4,5.71-6.37,2.82-4,5-8.12,4.62-13.17-.06-.82-.06-1.43,1-1.29.46,0,.66-.33.5-.75S88.34,7,87.87,6.86ZM70.62,20.42c-.26-1.2.58-2.07.8-3.06.48-2.16,1.66-4.13,1.79-6.38,0-.32.49-.73-.08-.87s-.45.44-.56.76a50.7,50.7,0,0,0-1.85,5.36C70.41,17.57,69.5,19,70.62,20.42ZM87.75,9.1c0,2-.5,3.64-.2,5.32C88.17,12.81,89.21,11.22,87.75,9.1ZM73.63,9c.68-.81,1.34-1.64,2.07-2.41.21-.22.26-.37.1-.54a.41.41,0,0,0-.69.09A6.93,6.93,0,0,0,73.63,9Z"/><path class="cls-2" d="M65.42,1.78a2.61,2.61,0,0,1,2.49,2.49c.09,1.12.29,2.24.39,3.37a1.6,1.6,0,0,1-.21.78c-1.5,3-1.48,6.3-1.65,9.54-.22,4.26-.33,8.51-1.73,12.62a13.89,13.89,0,0,0-.51,3c-.07.62-.19,1.79-.42,1.69-1-.46-1.34,1.23-2.34.62a10.76,10.76,0,0,1-1.47-1c-.73-.63-.8-1.88-2-2.1-.29,0-.16-.6-.07-.89,1.13-3.68,1.48-7.52,2.4-11.24.49-2,.83-4,1.28-5.93a4.16,4.16,0,0,0-2.45-4.4,1.09,1.09,0,0,1-.78-.76c-.28-1.29-.55-2.58-.82-3.87a.84.84,0,0,1,.58-1.11c1.31-.6,2.53-1.4,3.79-2.12A5.65,5.65,0,0,1,65.42,1.78ZM61.74,20.59c-.7.72-.45,1.54-.68,2.2-.06.19-.06.52.29.44.2,0,.35-.24.52-.37C61.33,22.18,62.16,21.46,61.74,20.59Z"/><path class="cls-3" d="M10.14,40.88h1a1.52,1.52,0,0,1,.69.15,1.15,1.15,0,0,1,.47.43,1.25,1.25,0,0,1,.17.64,1.22,1.22,0,0,1-.17.64,1.17,1.17,0,0,1-.47.44,1.52,1.52,0,0,1-.69.15h-1Zm1,2.14a1.08,1.08,0,0,0,.52-.11.86.86,0,0,0,.35-.33.9.9,0,0,0,.13-.48,1,1,0,0,0-.13-.48.78.78,0,0,0-.35-.32,1.08,1.08,0,0,0-.52-.12h-.66V43Z"/><path class="cls-3" d="M13,40.88h.35v2.45H13Z"/><path class="cls-3" d="M14.3,43.27a1.22,1.22,0,0,1-.41-.22l.13-.27a1.25,1.25,0,0,0,.36.2,1.42,1.42,0,0,0,.45.08.9.9,0,0,0,.46-.1.32.32,0,0,0,.15-.28.28.28,0,0,0-.08-.2.5.5,0,0,0-.21-.13l-.34-.09a3.5,3.5,0,0,1-.44-.13.9.9,0,0,1-.3-.21.53.53,0,0,1-.12-.37.66.66,0,0,1,.11-.36.72.72,0,0,1,.31-.25,1.35,1.35,0,0,1,.52-.09,2,2,0,0,1,.43,0,1.19,1.19,0,0,1,.36.16l-.11.28a1.56,1.56,0,0,0-.33-.14,1.06,1.06,0,0,0-.35-.05.75.75,0,0,0-.44.1.35.35,0,0,0-.15.28.29.29,0,0,0,.08.21.72.72,0,0,0,.21.12l.34.1a2.36,2.36,0,0,1,.44.13.66.66,0,0,1,.29.2.55.55,0,0,1,.12.37.6.6,0,0,1-.1.35.68.68,0,0,1-.32.25,1.19,1.19,0,0,1-.53.1A1.6,1.6,0,0,1,14.3,43.27Z"/><path class="cls-3" d="M16.75,41.18h-.84v-.3h2v.3H17.1v2.15h-.35Z"/><path class="cls-3" d="M20,43.33l-.53-.75h-.76v.75h-.35V40.88h1a1.17,1.17,0,0,1,.75.22.77.77,0,0,1,.27.63.83.83,0,0,1-.14.48.81.81,0,0,1-.4.3l.58.82Zm-.19-1.19a.48.48,0,0,0,.18-.41.5.5,0,0,0-.18-.41.8.8,0,0,0-.51-.14h-.59v1.11h.59A.74.74,0,0,0,19.77,42.14Z"/><path class="cls-3" d="M20.87,40.88h.35v2.45h-.35Z"/><path class="cls-3" d="M23.94,42.27a.65.65,0,0,1,.12.4.58.58,0,0,1-.24.49,1.21,1.21,0,0,1-.69.17H22V40.88h1.1a1.13,1.13,0,0,1,.66.16.56.56,0,0,1,.22.47.67.67,0,0,1-.08.33.54.54,0,0,1-.25.22A.62.62,0,0,1,23.94,42.27ZM22.3,41.16V42H23a.72.72,0,0,0,.42-.11.31.31,0,0,0,.14-.29.32.32,0,0,0-.14-.29.73.73,0,0,0-.42-.1ZM23.56,43a.35.35,0,0,0,.15-.31c0-.27-.2-.41-.6-.41H22.3v.82h.81A.88.88,0,0,0,23.56,43Z"/><path class="cls-3" d="M24.86,43.08a1.13,1.13,0,0,1-.27-.81V40.88h.35v1.38c0,.52.23.79.69.79a.66.66,0,0,0,.51-.2.85.85,0,0,0,.18-.59V40.88h.34v1.39a1.13,1.13,0,0,1-.27.81,1.19,1.19,0,0,1-1.53,0Z"/><path class="cls-3" d="M27.38,40.88h.35v2.45h-.35Z"/><path class="cls-3" d="M28.47,40.88h1a1.52,1.52,0,0,1,.69.15,1.15,1.15,0,0,1,.47.43,1.25,1.25,0,0,1,.17.64,1.22,1.22,0,0,1-.17.64,1.17,1.17,0,0,1-.47.44,1.52,1.52,0,0,1-.69.15h-1Zm1,2.14a1.08,1.08,0,0,0,.52-.11.8.8,0,0,0,.35-.33.9.9,0,0,0,.13-.48,1,1,0,0,0-.13-.48A.73.73,0,0,0,30,41.3a1.08,1.08,0,0,0-.52-.12h-.66V43Z"/><path class="cls-3" d="M31.8,43.19a1.13,1.13,0,0,1-.47-.45,1.25,1.25,0,0,1-.17-.64A1.21,1.21,0,0,1,31.8,41a1.48,1.48,0,0,1,1.34,0,1.17,1.17,0,0,1,.46.45,1.16,1.16,0,0,1,.17.64,1.19,1.19,0,0,1-.17.65,1.09,1.09,0,0,1-.46.44,1.41,1.41,0,0,1-1.34,0ZM33,42.92a.92.92,0,0,0,.34-.34,1,1,0,0,0,0-1,1,1,0,0,0-.34-.34,1.06,1.06,0,0,0-1,0,.92.92,0,0,0-.34.34,1,1,0,0,0,0,1,.86.86,0,0,0,.34.34,1,1,0,0,0,1,0Z"/><path class="cls-3" d="M36,43.33l-.53-.75h-.76v.75h-.35V40.88h.95a1.14,1.14,0,0,1,.75.22.75.75,0,0,1,.28.63.83.83,0,0,1-.14.48.81.81,0,0,1-.4.3l.58.82Zm-.19-1.19a.48.48,0,0,0,.18-.41.5.5,0,0,0-.18-.41.8.8,0,0,0-.51-.14h-.59v1.11h.59A.74.74,0,0,0,35.76,42.14Z"/><path class="cls-3" d="M38.42,42.72H37.11l-.27.61h-.36l1.12-2.45h.34l1.12,2.45h-.37Zm-.12-.28-.53-1.21-.53,1.21Z"/><path class="cls-3" d="M40.37,40.88h1a1.52,1.52,0,0,1,.69.15,1.15,1.15,0,0,1,.47.43,1.24,1.24,0,0,1,.16.64,1.22,1.22,0,0,1-.16.64,1.17,1.17,0,0,1-.47.44,1.52,1.52,0,0,1-.69.15h-1Zm1,2.14a1.08,1.08,0,0,0,.52-.11.86.86,0,0,0,.35-.33.9.9,0,0,0,.12-.48,1,1,0,0,0-.12-.48.78.78,0,0,0-.35-.32,1.08,1.08,0,0,0-.52-.12h-.66V43Z"/><path class="cls-3" d="M45,43v.31H43.26V40.88H45v.3H43.61v.75h1.23v.3H43.61V43Z"/><path class="cls-3" d="M46.55,40.88h.35V43h1.33v.31H46.55Z"/><path class="cls-3" d="M48.63,40.88H49v2.45h-.35Z"/><path class="cls-3" d="M52,43.33V41.54L51.11,43H51l-.89-1.48v1.78h-.34V40.88H50l1,1.72,1-1.72h.29v2.45Z"/><path class="cls-3" d="M54.78,41.1a.87.87,0,0,1,0,1.26,1.18,1.18,0,0,1-.75.23h-.61v.74h-.35V40.88h1A1.17,1.17,0,0,1,54.78,41.1Zm-.26,1a.56.56,0,0,0,0-.82.78.78,0,0,0-.5-.14h-.6v1.1H54A.78.78,0,0,0,54.52,42.14Z"/><path class="cls-3" d="M55.57,40.88h.35v2.45h-.35Z"/><path class="cls-3" d="M58.43,43v.31H56.65V40.88h1.73v.3H57v.75h1.23v.3H57V43Z"/><path class="cls-3" d="M60.83,43v.31h-2v-.24l1.55-1.91H58.81v-.3h2v.23L59.25,43Z"/><path class="cls-3" d="M62.87,42.72H61.56l-.27.61h-.36L62,40.88h.35l1.11,2.45h-.36Zm-.13-.28-.53-1.21-.53,1.21Z"/><path class="cls-3" d="M65.75,42.48v.85h-.34v-.86l-1-1.59h.37l.79,1.29.79-1.29h.35Z"/><path class="cls-3" d="M70.55,43.55a.77.77,0,0,1-.62.29,1,1,0,0,1-.43-.11,2,2,0,0,1-.46-.38,1.36,1.36,0,0,1-.63-.18,1.16,1.16,0,0,1-.43-.45A1.24,1.24,0,0,1,68.46,41a1.48,1.48,0,0,1,1.34,0,1.17,1.17,0,0,1,.46.45,1.16,1.16,0,0,1,.17.64,1.31,1.31,0,0,1-.12.56,1.07,1.07,0,0,1-.34.42,1.45,1.45,0,0,1-.5.24.92.92,0,0,0,.23.19.52.52,0,0,0,.24.05.6.6,0,0,0,.45-.21Zm-2.25-1a.86.86,0,0,0,.34.34,1,1,0,0,0,.49.13,1,1,0,0,0,.48-.13.88.88,0,0,0,.35-.34.94.94,0,0,0-.83-1.42,1,1,0,0,0-.49.12.92.92,0,0,0-.34.34,1,1,0,0,0,0,1Z"/><path class="cls-3" d="M71.22,43.08a1.13,1.13,0,0,1-.27-.81V40.88h.35v1.38c0,.52.23.79.69.79a.65.65,0,0,0,.51-.2.85.85,0,0,0,.18-.59V40.88H73v1.39a1.13,1.13,0,0,1-.27.81,1.19,1.19,0,0,1-1.53,0Z"/><path class="cls-3" d="M74.13,40.22h.43l-.59.46h-.32Zm-.39.66h.35v2.45h-.35Z"/><path class="cls-3" d="M77.1,43.33V41.54L76.21,43h-.16l-.89-1.48v1.78h-.33V40.88h.29l1,1.72,1-1.72h.29v2.45Z"/><path class="cls-3" d="M78.18,40.88h.35v2.45h-.35Z"/><path class="cls-3" d="M79.7,43.19a1.11,1.11,0,0,1-.47-.44,1.29,1.29,0,0,1-.17-.65,1.25,1.25,0,0,1,.17-.64A1.2,1.2,0,0,1,79.7,41a1.34,1.34,0,0,1,.66-.16,1.47,1.47,0,0,1,.53.09,1.18,1.18,0,0,1,.41.29l-.23.22a.94.94,0,0,0-.69-.29,1.06,1.06,0,0,0-.5.12.92.92,0,0,0-.34.34,1,1,0,0,0,0,1,.86.86,0,0,0,.34.34,1.06,1.06,0,0,0,.5.13.92.92,0,0,0,.69-.3l.23.22a1.18,1.18,0,0,1-.41.29,1.51,1.51,0,0,1-.53.1A1.3,1.3,0,0,1,79.7,43.19Z"/><path class="cls-3" d="M83.3,42.72H82l-.27.61h-.36l1.11-2.45h.34l1.12,2.45h-.37Zm-.12-.28-.53-1.21-.53,1.21Z"/></g></g></svg>